{
	"asset":{
		"generator":"Khronos glTF Blender I/O v5.0.21",
		"version":"2.0"
	},
	"scene":0,
	"scenes":[
		{
			"extras":{
				"yp":{
					"ori_look":"None",
					"ori_use_compositing":0,
					"ori_view_transform":"",
					"ori_display_device":"sRGB",
					"ori_exposure":0.0,
					"ori_gamma":1.0,
					"ori_use_curve_mapping":0
				},
				"ve_edit":{},
				"ypui":{
					"expand_channels":1,
					"expand_mask_channels":0,
					"show_bake_targets":1,
					"show_channels":1,
					"show_layers":1,
					"show_materials":1,
					"show_object":1,
					"show_stats":0,
					"show_support":0,
					"show_test":0,
					"tree_name":"Ucupaint BodyOldRacer"
				},
				"univ_settings":{
					"uv_layers_presets":[
						{
							"name":"UVMap",
							"flag":0
						},
						{},
						{},
						{},
						{},
						{},
						{},
						{}
					],
					"uv_layers_size":1,
					"uv_layers_active_idx":0,
					"uv_layers_active_render_idx":0
				},
				"gltf_action_filter":[
					{
						"keep":0,
						"action":{
							"name":"ArmatureAction.002",
							"type":"Action"
						}
					},
					{
						"keep":0,
						"action":{
							"name":"ChildAction",
							"type":"Action"
						}
					},
					{
						"keep":0,
						"action":{
							"name":"ConeAction",
							"type":"Action"
						}
					},
					{
						"keep":0,
						"action":{
							"name":"Cube.002Action",
							"type":"Action"
						}
					},
					{
						"keep":0,
						"action":{
							"name":"Cube2.002Action",
							"type":"Action"
						}
					},
					{
						"keep":0,
						"action":{
							"name":"Cube2.003Action",
							"type":"Action"
						}
					},
					{
						"keep":0,
						"action":{
							"name":"Cube2.004Action",
							"type":"Action"
						}
					},
					{
						"keep":0,
						"action":{
							"name":"Cube2.005Action",
							"type":"Action"
						}
					},
					{
						"keep":0,
						"action":{
							"name":"Cube2.006Action",
							"type":"Action"
						}
					},
					{
						"keep":0,
						"action":{
							"name":"Cube2.007Action",
							"type":"Action"
						}
					},
					{
						"keep":0,
						"action":{
							"name":"Cube2.008Action",
							"type":"Action"
						}
					},
					{
						"keep":0,
						"action":{
							"name":"Cube2.009Action",
							"type":"Action"
						}
					},
					{
						"keep":0,
						"action":{
							"name":"Cube2.010Action",
							"type":"Action"
						}
					},
					{
						"keep":0,
						"action":{
							"name":"Cube2.011Action",
							"type":"Action"
						}
					},
					{
						"keep":0,
						"action":{
							"name":"Cube2.012Action.001",
							"type":"Action"
						}
					},
					{
						"keep":1,
						"action":{
							"name":"DestroyerTrackCurveAnimation",
							"type":"Action"
						}
					},
					{
						"keep":1,
						"action":{
							"name":"DestroyerTrackCurveAnimation.002",
							"type":"Action"
						}
					},
					{
						"keep":0,
						"action":{
							"name":"DriverSteering",
							"type":"Action"
						}
					},
					{
						"keep":0,
						"action":{
							"name":"ParentAction",
							"type":"Action"
						}
					},
					{
						"keep":0,
						"action":{
							"name":"RatRun",
							"type":"Action"
						}
					},
					{
						"keep":0,
						"action":{
							"name":"Take 001",
							"type":"Action"
						}
					},
					{
						"keep":0,
						"action":{
							"name":"Take 001|BaseLayer",
							"type":"Action"
						}
					},
					{
						"keep":0,
						"action":{
							"name":"Take 001|WingFold",
							"type":"Action"
						}
					}
				]
			},
			"name":"Scene",
			"nodes":[
				0,
				3
			]
		}
	],
	"nodes":[
		{
			"extras":{
				"physics":"terrain"
			},
			"mesh":0,
			"name":"Terrain.002"
		},
		{
			"extras":{
				"physics":"kinematic",
				"isConvexHull":true
			},
			"mesh":1,
			"name":"Child.001",
			"rotation":[
				0,
				0.3826834559440613,
				0,
				0.9238795638084412
			],
			"translation":[
				0,
				0,
				3.5902347564697266
			]
		},
		{
			"children":[
				1
			],
			"extras":{
				"physics":"kinematic"
			},
			"mesh":2,
			"name":"Child",
			"rotation":[
				0,
				0.04396812617778778,
				0,
				0.9990329146385193
			],
			"translation":[
				-4.980668067932129,
				0,
				0.43925607204437256
			]
		},
		{
			"children":[
				2
			],
			"extras":{
				"physics":"kinematic"
			},
			"mesh":3,
			"name":"Parent",
			"rotation":[
				0,
				-0.04396812617778778,
				0,
				0.9990329146385193
			],
			"translation":[
				0,
				2,
				-5
			]
		}
	],
	"animations":[
		{
			"channels":[
				{
					"sampler":0,
					"target":{
						"node":3,
						"path":"translation"
					}
				},
				{
					"sampler":1,
					"target":{
						"node":3,
						"path":"rotation"
					}
				},
				{
					"sampler":2,
					"target":{
						"node":3,
						"path":"scale"
					}
				}
			],
			"name":"ParentAction",
			"samplers":[
				{
					"input":18,
					"interpolation":"LINEAR",
					"output":19
				},
				{
					"input":18,
					"interpolation":"LINEAR",
					"output":20
				},
				{
					"input":21,
					"interpolation":"STEP",
					"output":22
				}
			]
		},
		{
			"channels":[
				{
					"sampler":0,
					"target":{
						"node":2,
						"path":"translation"
					}
				},
				{
					"sampler":1,
					"target":{
						"node":2,
						"path":"rotation"
					}
				},
				{
					"sampler":2,
					"target":{
						"node":2,
						"path":"scale"
					}
				}
			],
			"name":"ChildAction",
			"samplers":[
				{
					"input":18,
					"interpolation":"LINEAR",
					"output":23
				},
				{
					"input":18,
					"interpolation":"LINEAR",
					"output":24
				},
				{
					"input":21,
					"interpolation":"STEP",
					"output":22
				}
			]
		}
	],
	"materials":[
		{
			"doubleSided":true,
			"extras":{
				"yp":{}
			},
			"name":"test_material3.002",
			"pbrMetallicRoughness":{
				"baseColorFactor":[
					0.800000011920929,
					0.800000011920929,
					0.800000011920929,
					1
				],
				"metallicFactor":0,
				"roughnessFactor":0.5
			}
		},
		{
			"doubleSided":true,
			"name":"Material",
			"pbrMetallicRoughness":{
				"baseColorFactor":[
					0.8000156879425049,
					0,
					0.008813285268843174,
					1
				],
				"metallicFactor":0,
				"roughnessFactor":0.5
			}
		}
	],
	"meshes":[
		{
			"name":"Plane.003",
			"primitives":[
				{
					"attributes":{
						"POSITION":0,
						"NORMAL":1,
						"TEXCOORD_0":2,
						"TANGENT":3
					},
					"indices":4,
					"material":0
				}
			]
		},
		{
			"name":"Cube.002",
			"primitives":[
				{
					"attributes":{
						"POSITION":5,
						"NORMAL":6,
						"TEXCOORD_0":7,
						"TANGENT":8
					},
					"indices":9,
					"material":1
				}
			]
		},
		{
			"name":"Cube.001",
			"primitives":[
				{
					"attributes":{
						"POSITION":10,
						"NORMAL":11,
						"TEXCOORD_0":12,
						"TANGENT":13
					},
					"indices":9,
					"material":1
				}
			]
		},
		{
			"name":"Cube",
			"primitives":[
				{
					"attributes":{
						"POSITION":14,
						"NORMAL":15,
						"TEXCOORD_0":16,
						"TANGENT":17
					},
					"indices":9,
					"material":1
				}
			]
		}
	],
	"accessors":[
		{
			"bufferView":0,
			"componentType":5126,
			"count":42,
			"max":[
				11,
				0,
				11
			],
			"min":[
				-11,
				-5,
				-11
			],
			"type":"VEC3"
		},
		{
			"bufferView":1,
			"componentType":5126,
			"count":42,
			"type":"VEC3"
		},
		{
			"bufferView":2,
			"componentType":5126,
			"count":42,
			"type":"VEC2"
		},
		{
			"bufferView":3,
			"componentType":5126,
			"count":42,
			"type":"VEC4"
		},
		{
			"bufferView":4,
			"componentType":5123,
			"count":96,
			"type":"SCALAR"
		},
		{
			"bufferView":5,
			"componentType":5126,
			"count":24,
			"max":[
				1,
				1,
				1
			],
			"min":[
				-1,
				-1,
				-1
			],
			"type":"VEC3"
		},
		{
			"bufferView":6,
			"componentType":5126,
			"count":24,
			"type":"VEC3"
		},
		{
			"bufferView":7,
			"componentType":5126,
			"count":24,
			"type":"VEC2"
		},
		{
			"bufferView":8,
			"componentType":5126,
			"count":24,
			"type":"VEC4"
		},
		{
			"bufferView":9,
			"componentType":5123,
			"count":36,
			"type":"SCALAR"
		},
		{
			"bufferView":10,
			"componentType":5126,
			"count":24,
			"max":[
				1,
				1,
				1
			],
			"min":[
				-1,
				-1,
				-1
			],
			"type":"VEC3"
		},
		{
			"bufferView":11,
			"componentType":5126,
			"count":24,
			"type":"VEC3"
		},
		{
			"bufferView":12,
			"componentType":5126,
			"count":24,
			"type":"VEC2"
		},
		{
			"bufferView":13,
			"componentType":5126,
			"count":24,
			"type":"VEC4"
		},
		{
			"bufferView":14,
			"componentType":5126,
			"count":24,
			"max":[
				2,
				2,
				2
			],
			"min":[
				-2,
				-2,
				-2
			],
			"type":"VEC3"
		},
		{
			"bufferView":15,
			"componentType":5126,
			"count":24,
			"type":"VEC3"
		},
		{
			"bufferView":16,
			"componentType":5126,
			"count":24,
			"type":"VEC2"
		},
		{
			"bufferView":17,
			"componentType":5126,
			"count":24,
			"type":"VEC4"
		},
		{
			"bufferView":18,
			"componentType":5126,
			"count":81,
			"max":[
				3.3333333333333335
			],
			"min":[
				0
			],
			"type":"SCALAR"
		},
		{
			"bufferView":19,
			"componentType":5126,
			"count":81,
			"type":"VEC3"
		},
		{
			"bufferView":20,
			"componentType":5126,
			"count":81,
			"type":"VEC4"
		},
		{
			"bufferView":21,
			"componentType":5126,
			"count":2,
			"max":[
				3.3333333333333335
			],
			"min":[
				0
			],
			"type":"SCALAR"
		},
		{
			"bufferView":22,
			"componentType":5126,
			"count":2,
			"type":"VEC3"
		},
		{
			"bufferView":23,
			"componentType":5126,
			"count":81,
			"type":"VEC3"
		},
		{
			"bufferView":24,
			"componentType":5126,
			"count":81,
			"type":"VEC4"
		}
	],
	"bufferViews":[
		{
			"buffer":0,
			"byteLength":504,
			"byteOffset":0,
			"target":34962
		},
		{
			"buffer":0,
			"byteLength":504,
			"byteOffset":504,
			"target":34962
		},
		{
			"buffer":0,
			"byteLength":336,
			"byteOffset":1008,
			"target":34962
		},
		{
			"buffer":0,
			"byteLength":672,
			"byteOffset":1344,
			"target":34962
		},
		{
			"buffer":0,
			"byteLength":192,
			"byteOffset":2016,
			"target":34963
		},
		{
			"buffer":0,
			"byteLength":288,
			"byteOffset":2208,
			"target":34962
		},
		{
			"buffer":0,
			"byteLength":288,
			"byteOffset":2496,
			"target":34962
		},
		{
			"buffer":0,
			"byteLength":192,
			"byteOffset":2784,
			"target":34962
		},
		{
			"buffer":0,
			"byteLength":384,
			"byteOffset":2976,
			"target":34962
		},
		{
			"buffer":0,
			"byteLength":72,
			"byteOffset":3360,
			"target":34963
		},
		{
			"buffer":0,
			"byteLength":288,
			"byteOffset":3432,
			"target":34962
		},
		{
			"buffer":0,
			"byteLength":288,
			"byteOffset":3720,
			"target":34962
		},
		{
			"buffer":0,
			"byteLength":192,
			"byteOffset":4008,
			"target":34962
		},
		{
			"buffer":0,
			"byteLength":384,
			"byteOffset":4200,
			"target":34962
		},
		{
			"buffer":0,
			"byteLength":288,
			"byteOffset":4584,
			"target":34962
		},
		{
			"buffer":0,
			"byteLength":288,
			"byteOffset":4872,
			"target":34962
		},
		{
			"buffer":0,
			"byteLength":192,
			"byteOffset":5160,
			"target":34962
		},
		{
			"buffer":0,
			"byteLength":384,
			"byteOffset":5352,
			"target":34962
		},
		{
			"buffer":0,
			"byteLength":324,
			"byteOffset":5736
		},
		{
			"buffer":0,
			"byteLength":972,
			"byteOffset":6060
		},
		{
			"buffer":0,
			"byteLength":1296,
			"byteOffset":7032
		},
		{
			"buffer":0,
			"byteLength":8,
			"byteOffset":8328
		},
		{
			"buffer":0,
			"byteLength":24,
			"byteOffset":8336
		},
		{
			"buffer":0,
			"byteLength":972,
			"byteOffset":8360
		},
		{
			"buffer":0,
			"byteLength":1296,
			"byteOffset":9332
		}
	],
	"buffers":[
		{
			"byteLength":10628,
			"uri":"gltf_test.bin"
		}
	]
}
